<svg width="39" height="39" viewBox="0 0 39 39" fill="none" xmlns="http://www.w3.org/2000/svg">
<path d="M28.0312 24.9844C28.0313 25.587 28.2099 26.1761 28.5447 26.6771C28.8795 27.1782 29.3554 27.5687 29.9121 27.7993C30.4689 28.0299 31.0815 28.0903 31.6725 27.9727C32.2636 27.8551 32.8065 27.565 33.2326 27.1388C33.6587 26.7127 33.9489 26.1698 34.0665 25.5788C34.184 24.9878 34.1237 24.3751 33.8931 23.8184C33.6625 23.2616 33.2719 22.7858 32.7709 22.451C32.2698 22.1162 31.6807 21.9375 31.0781 21.9375C30.2703 21.9385 29.4959 22.2598 28.9247 22.831C28.3535 23.4022 28.0322 24.1766 28.0312 24.9844ZM32.9063 24.9844C32.9063 25.3459 32.799 25.6994 32.5982 26C32.3973 26.3007 32.1118 26.535 31.7777 26.6733C31.4437 26.8117 31.0761 26.8479 30.7215 26.7774C30.3669 26.7068 30.0411 26.5327 29.7854 26.2771C29.5298 26.0214 29.3557 25.6956 29.2851 25.341C29.2146 24.9864 29.2508 24.6188 29.3892 24.2848C29.5275 23.9507 29.7618 23.6652 30.0625 23.4643C30.3631 23.2635 30.7166 23.1563 31.0781 23.1563C31.563 23.1563 32.028 23.3489 32.3708 23.6917C32.7136 24.0345 32.9063 24.4995 32.9063 24.9844Z" fill="white"/>
<path d="M33.1988 33.7045C35.0513 31.3158 37.7813 27.3853 37.7813 24.9844C37.7778 23.4194 37.228 21.9047 36.2266 20.702C35.2253 19.4993 33.8353 18.684 32.2969 18.397V11.5781L34.582 12.1692C34.6319 12.1813 34.6831 12.1874 34.7344 12.1875C34.896 12.1875 35.051 12.1233 35.1653 12.009C35.2796 11.8947 35.3438 11.7397 35.3438 11.5781V7.92187C35.344 7.78659 35.2992 7.65508 35.2165 7.54806C35.1337 7.44104 35.0177 7.36459 34.8867 7.33077L18.4336 3.06515C18.3335 3.04078 18.229 3.04078 18.1289 3.06515L1.67579 7.33077C1.54481 7.36459 1.4288 7.44104 1.34605 7.54806C1.2633 7.65508 1.21852 7.78659 1.21876 7.92187V11.5781C1.21828 11.6713 1.23951 11.7633 1.28076 11.8469C1.32201 11.9304 1.38215 12.0032 1.45641 12.0595C1.52997 12.1159 1.61525 12.155 1.70596 12.174C1.79667 12.193 1.89049 12.1914 1.98048 12.1692L4.26563 11.5781V33.5156C4.26563 33.6772 4.32983 33.8322 4.44411 33.9465C4.55839 34.0608 4.71339 34.125 4.87501 34.125H27.5316C26.7516 34.4662 26.2031 34.9659 26.2031 35.6484C26.2031 37.1109 28.732 37.7812 31.0781 37.7812C33.4242 37.7812 35.9531 37.1109 35.9531 35.6484C35.9531 34.5942 34.6674 33.9848 33.1988 33.7045ZM36.5625 24.9844C36.5625 27.3426 32.9489 32.1567 31.0781 34.4053C29.2074 32.1567 25.5938 27.3426 25.5938 24.9844C25.5938 23.5298 26.1716 22.1348 27.2001 21.1063C28.2286 20.0778 29.6236 19.5 31.0781 19.5C32.5327 19.5 33.9277 20.0778 34.9562 21.1063C35.9847 22.1348 36.5625 23.5298 36.5625 24.9844ZM22.5469 19.5V17.0625C22.5479 16.5808 22.6913 16.1101 22.9591 15.7097C23.2269 15.3092 23.6071 14.9969 24.0519 14.8119C24.4967 14.627 24.9863 14.5777 25.459 14.6702C25.9318 14.7627 26.3666 14.9929 26.7089 15.3319C27.1649 15.7926 27.421 16.4143 27.4219 17.0625V19.372L27.2391 19.5H22.5469ZM2.43751 10.792V8.39109L18.2813 4.2839L34.125 8.39109V10.792L18.4336 6.7214C18.3335 6.69703 18.229 6.69703 18.1289 6.7214L2.43751 10.792ZM17.6719 32.9062H14.625V24.375H17.6719V32.9062ZM21.9375 32.9062H18.8906V24.375H21.9375V32.9062ZM23.1563 32.9062V23.7656C23.1563 23.604 23.0921 23.449 22.9778 23.3347C22.8635 23.2204 22.7085 23.1562 22.5469 23.1562H14.0156C13.854 23.1562 13.699 23.2204 13.5847 23.3347C13.4705 23.449 13.4063 23.604 13.4063 23.7656V32.9062H5.48438V11.2612L18.2813 7.94015L31.0781 11.2612V18.2812C30.244 18.2836 29.4175 18.4406 28.6406 18.7444V17.0625C28.6406 16.0928 28.2554 15.1628 27.5697 14.4771C26.8841 13.7915 25.9541 13.4062 24.9844 13.4062C24.0147 13.4062 23.0847 13.7915 22.399 14.4771C21.7133 15.1628 21.3281 16.0928 21.3281 17.0625V19.5H20.7188V20.7187H25.9106C24.917 21.918 24.3738 23.4269 24.375 24.9844C24.375 27.1294 26.5627 30.5053 28.3481 32.9062H23.1563ZM31.0781 36.5625C28.7381 36.5625 27.495 35.8922 27.4219 35.6606C27.4767 35.4717 28.2567 34.9903 29.835 34.8075C30.2677 35.3437 30.5663 35.685 30.6211 35.7459C30.6783 35.8108 30.7486 35.8627 30.8274 35.8983C30.9062 35.9338 30.9917 35.9522 31.0781 35.9522C31.1646 35.9522 31.2501 35.9338 31.3289 35.8983C31.4076 35.8627 31.478 35.8108 31.5352 35.7459C31.59 35.685 31.8886 35.3437 32.3213 34.8075C33.8995 34.9903 34.6795 35.4717 34.7344 35.6362C34.6613 35.8922 33.4181 36.5625 31.0781 36.5625Z" fill="white"/>
<path d="M15.8438 28.0312H17.0625V29.25H15.8438V28.0312Z" fill="white"/>
<path d="M19.5 28.0312H20.7188V29.25H19.5V28.0312Z" fill="white"/>
<path d="M15.2344 19.5V17.0625C15.2344 16.0928 14.8492 15.1628 14.1635 14.4771C13.4778 13.7915 12.5478 13.4062 11.5781 13.4062C10.6084 13.4062 9.67845 13.7915 8.99277 14.4771C8.30709 15.1628 7.92188 16.0928 7.92188 17.0625V19.5H7.3125V20.7188H15.8438V19.5H15.2344ZM14.0156 19.5H9.14062V17.0625C9.14062 16.416 9.39743 15.796 9.85455 15.3389C10.3117 14.8818 10.9317 14.625 11.5781 14.625C12.2246 14.625 12.8446 14.8818 13.3017 15.3389C13.7588 15.796 14.0156 16.416 14.0156 17.0625V19.5Z" fill="white"/>
</svg>
